# xmcd
#
# Track frame offsets:
#	150
#	21990
#	39123
#	61693
#	83255
#	108102
#	131705
#	148502
#	169450
#	189983
#	209450
#	232120
#
# Disc length: 3359 seconds
#
# Revision: 1
# Processed by: cddbd v1.5PL3 Copyright (c) Steve Scherf et al.
# Submitted via: EasyCDDAExtractor 7.0.0.1
#
DISCID=990d1d0c
DTITLE=Emmylou Harris - Red Dirt Girl
DYEAR=1900
DGENRE=
TTITLE0=Bang the Drum Slowly
TTITLE1=Boy from Tupelo
TTITLE2=Hour of Gold
TTITLE3=I Don't Want to Talk About It Now
TTITLE4=J'ai Fait Tout
TTITLE5=Michelangelo
TTITLE6=My Antonia
TTITLE7=My Baby Needs a Shepherd
TTITLE8=One Big Love
TTITLE9=Red Dirt Girl
TTITLE10=The Pearl
TTITLE11=Tragedy
EXTD=
EXTT0=
EXTT1=
EXTT2=
EXTT3=
EXTT4=
EXTT5=
EXTT6=
EXTT7=
EXTT8=
EXTT9=
EXTT10=
EXTT11=
PLAYORDER=
